<svg xmlns="http://www.w3.org/2000/svg" viewBox="0 0 28.57 20">
  <path
    fill="white"
    fill-rule="evenodd"
    d="
      M27.9727 3.12324
      C27.6435 1.89323 26.6768 0.926623 25.4468 0.597366
      C23.2197 0 14.285 0 14.285 0
      C14.285 0 5.35042 0 3.12323 0.597366
      C1.89323 0.926623 0.926623 1.89323 0.597366 3.12324
      C0 5.35042 0 10 0 10
      C0 10 0 14.6496 0.597366 16.8768
      C0.926623 18.1068 1.89323 19.0734 3.12323 19.4026
      C5.35042 20 14.285 20 14.285 20
      C14.285 20 23.2197 20 25.4468 19.4026
      C26.6768 19.0734 27.6435 18.1068 27.9727 16.8768
      C28.5701 14.6496 28.5701 10 28.5701 10
      C28.5701 10 28.5677 5.35042 27.9727 3.12324
      Z

      M11.4253 14.2854
      L18.8477 10.0004
      L11.4253 5.71533
      Z
    "
  />
</svg>